<?xml version="1.0" encoding="UTF-8"?>
<svg id="_圖層_1" xmlns="http://www.w3.org/2000/svg" xmlns:xlink="http://www.w3.org/1999/xlink" version="1.1" viewBox="0 0 86.6 85">
  <defs>
    <style>
      .st0 {
        fill: #fff;
      }

      .st1 {
        fill: url(#_未命名漸層_164);
      }
    </style>
    <linearGradient id="_未命名漸層_164" data-name="未命名漸層 164" x1="11.99" y1="65.93" x2="74.43" y2="19.2" gradientUnits="userSpaceOnUse">
      <stop offset="0" stop-color="#f1937c"/>
      <stop offset="1" stop-color="#a85d76"/>
    </linearGradient>
  </defs>
  <circle class="st1" cx="43.3" cy="42.5" r="39.1"/>
  <g>
    <path class="st0" d="M53.68,32.41h-12.22v23.78h7.38v-8.83h4.02c2.96,0,5.17-.68,6.61-2.03,1.44-1.35,2.17-3.23,2.17-5.63s-.66-4.14-1.99-5.4c-1.33-1.27-3.32-1.9-5.98-1.9ZM53.63,41.81c-.57.49-1.57.74-2.99.74h-1.8v-5.3h2.09c1.37,0,2.31.26,2.81.78.5.52.75,1.15.75,1.9s-.29,1.4-.86,1.89Z"/>
    <path class="st0" d="M73.89,32.41h-4.41c-2.07-5.56-5.86-10.28-10.72-13.53.08-.25.14-.51.14-.78,0-1.36-1.1-2.46-2.46-2.46-.77,0-1.46.36-1.91.92-3.44-1.52-7.24-2.37-11.23-2.37-15.4,0-27.93,12.53-27.93,27.93,0,1.16.08,2.31.22,3.43l-4,10.64h7.5l.03-.11c2.97,5.12,7.52,9.22,12.98,11.62.17,1.46,1.4,2.6,2.91,2.6.85,0,1.61-.37,2.15-.94,1.98.45,4.03.69,6.14.69,10.27,0,19.26-5.58,24.11-13.86h6.48v-23.78ZM43.3,69.05c-1.91,0-3.77-.2-5.56-.58.14-.34.22-.71.22-1.11,0-1.62-1.32-2.94-2.94-2.94-1.37,0-2.51.94-2.84,2.21-5.41-2.47-9.87-6.67-12.65-11.89l.73-2.48h8.34l1.19,3.93h7.7l-8.94-23.78h-8.02l-4.13,10.98c-.02-.42-.03-.84-.03-1.27,0-14.85,12.08-26.93,26.93-26.93,3.83,0,7.47.81,10.78,2.26-.06.21-.1.42-.1.65,0,1.36,1.1,2.46,2.46,2.46.73,0,1.37-.32,1.82-.82,4.56,3.06,8.13,7.48,10.15,12.66h-1.89v23.32c-4.68,7.96-13.34,13.32-23.23,13.32ZM21.85,47.12l2.6-8.55,2.63,8.55h-5.22Z"/>
  </g>
</svg>
